<svg id="Layer_1" data-name="Layer 1" xmlns="http://www.w3.org/2000/svg" viewBox="0 0 98.18 86.67"><defs><style>.cls-1{fill:#8a6b52;}</style></defs><title>icon-laptop</title><path class="cls-1" d="M92.71,75.62H7.29L1.46,87.5a3.85,3.85,0,0,0,.21,4,4.08,4.08,0,0,0,3.54,1.87H95a4.08,4.08,0,0,0,3.54-1.87,3.89,3.89,0,0,0,.21-4Z" transform="translate(-1.01 -6.67)"/><path class="cls-1" d="M53.12,41v6A3,3,0,0,0,55.62,44,2.35,2.35,0,0,0,55,42.29,3.55,3.55,0,0,0,53.12,41Z" transform="translate(-1.01 -6.67)"/><path class="cls-1" d="M86.25,6.67H13.75a4.18,4.18,0,0,0-4.17,4.16V67.5H90.21V10.62A3.82,3.82,0,0,0,86.25,6.67ZM60.62,50.62A12.49,12.49,0,0,1,53.12,54V57.5h-5.2V54a22,22,0,0,1-11.46-5.63L41,42.71a18.6,18.6,0,0,0,6.88,4.37V39.79c-3.34-.83-6.05-2.08-7.5-3.54-1.67-1.46-2.3-3.75-2.3-6.46a9,9,0,0,1,2.71-6.87,11.94,11.94,0,0,1,7.29-3.34v-2.5h5.21v2.5a22.16,22.16,0,0,1,9.79,4.17L59,29.17a17.06,17.06,0,0,0-5.84-2.92v7.08A17.64,17.64,0,0,1,61,37.08c1.88,1.67,2.5,3.75,2.5,6.46A9.54,9.54,0,0,1,60.62,50.62Z" transform="translate(-1.01 -6.67)"/><path class="cls-1" d="M45.83,28.75a3.05,3.05,0,0,0,2.09,2.92V26A2.89,2.89,0,0,0,45.83,28.75Z" transform="translate(-1.01 -6.67)"/></svg>