<svg id="Layer_1" data-name="Layer 1" xmlns="http://www.w3.org/2000/svg" viewBox="0 0 98.54 97.71"><defs><style>.cls-1{fill:#8a6b52;}</style></defs><title>icon-dollar</title><path class="cls-1" d="M50,1C22.71,1,.63,19.37.63,41.87c0,10.42,4.58,20.21,13.12,27.71l-7.92,24a3.88,3.88,0,0,0,1.25,4.38,4,4,0,0,0,2.5.83,4.1,4.1,0,0,0,2.09-.62L38.75,81.88a25.2,25.2,0,0,1,4,.62,38.31,38.31,0,0,0,5.41.21h1.67c27.29,0,49.38-18.33,49.38-40.84S77.29,1,50,1ZM62.92,61c-2.3,2.29-5.21,3.54-9.17,4v4.17H47.5V64.79a26.94,26.94,0,0,1-13.75-6.87l5.42-6.67a25.5,25.5,0,0,0,8.33,5.21V47.71c-4.17-1-7.08-2.5-9.17-4.38a10.37,10.37,0,0,1-2.91-7.71,11.15,11.15,0,0,1,3.33-8.33,14.9,14.9,0,0,1,8.75-4V20.42h6.25v2.91a27.28,27.28,0,0,1,11.67,5l-4.79,6.88a21.49,21.49,0,0,0-6.88-3.54v8.54q6.26,1.56,9.38,4.37A9.43,9.43,0,0,1,66,52.5,10.44,10.44,0,0,1,62.92,61Z" transform="translate(-0.63 -1.04)"/><path class="cls-1" d="M45,34.79c0,1.67.83,2.71,2.5,3.54V31.46A3.31,3.31,0,0,0,45,34.79Z" transform="translate(-0.63 -1.04)"/><path class="cls-1" d="M53.75,49.37v7.3a4,4,0,0,0,3.12-3.75,3.51,3.51,0,0,0-.62-2.09A6.66,6.66,0,0,0,53.75,49.37Z" transform="translate(-0.63 -1.04)"/></svg>