<?xml version="1.0" encoding="utf-8"?>
<!-- Generator: Adobe Illustrator 24.0.2, SVG Export Plug-In . SVG Version: 6.00 Build 0)  -->
<svg version="1.1" id="Layer_1" xmlns="http://www.w3.org/2000/svg" xmlns:xlink="http://www.w3.org/1999/xlink" x="0px" y="0px"
	 viewBox="0 0 100 100" style="enable-background:new 0 0 100 100;" xml:space="preserve">
<style type="text/css">
	.st0{fill:#8A6B52;}
</style>
<g>
	<path class="st0" d="M70.6,8.7c0-4.2-3.5-7.7-7.7-7.7H37.1c-4.2,0-7.7,3.5-7.7,7.7v6.5h41.5V8.7H70.6z"/>
	<g>
		<path class="st0" d="M35,56.5v-5c0-2.3,1.9-4.2,4.2-4.2h20c2.3,0,4.2,1.9,4.2,4.2v5h35.8V23.3H1.2v33.1C1.2,56.5,35,56.5,35,56.5z
			"/>
		<path class="st0" d="M63.1,64.6v8.3c0,2.3-1.9,4.2-4.2,4.2H39c-2.3,0-4.2-1.9-4.2-4.2v-8.3H1v30.2C1,97.1,2.9,99,5.2,99H95
			c2.3,0,4.2-1.9,4.2-4.2V64.6H63.1z"/>
		<rect x="43.1" y="55.6" class="st0" width="11.9" height="13.1"/>
	</g>
</g>
</svg>
