<svg id="Layer_1" data-name="Layer 1" xmlns="http://www.w3.org/2000/svg" viewBox="0 0 96.67 98.12"><defs><style>.cls-1{fill:#8a6b52;}</style></defs><title>icon-shack</title><path class="cls-1" d="M98.33,47.5c-.2-.21-.41-.63-.62-.83L52.92,2.29a4,4,0,0,0-5.84,0L2.29,46.67c-.21.2-.41.62-.62.83Z" transform="translate(-1.67 -1.04)"/><path class="cls-1" d="M5.42,55.62V94.79A4.18,4.18,0,0,0,9.58,99H40.83A4.19,4.19,0,0,0,45,94.79v-24c0-1.25,1.67-2.71,4.17-2.71s4.16,1.46,4.16,2.71V95a4.19,4.19,0,0,0,4.17,4.17H89.37A4.18,4.18,0,0,0,93.54,95V55.62Z" transform="translate(-1.67 -1.04)"/></svg>