<svg id="Layer_1" data-name="Layer 1" xmlns="http://www.w3.org/2000/svg" viewBox="0 0 97.92 93.77"><defs><style>.cls-1{fill:#8a6b52;}</style></defs><title>icon-growth</title><path class="cls-1" d="M95,16.88H94a4.46,4.46,0,0,0-3.13,1.45A103.25,103.25,0,0,1,72.92,36.25a4.41,4.41,0,0,0-1.46,3.13V93.12a4,4,0,0,0,4,4H95a4,4,0,0,0,4-4V20.62A3.78,3.78,0,0,0,95,16.88Z" transform="translate(-1.04 -3.31)"/><path class="cls-1" d="M61.67,42.29a4.28,4.28,0,0,0-4.17.21A192.6,192.6,0,0,1,38.33,54a4,4,0,0,0-2.08,3.54V93.12a4,4,0,0,0,4,4H59.79a4,4,0,0,0,4-4V45.83A4,4,0,0,0,61.67,42.29Z" transform="translate(-1.04 -3.31)"/><path class="cls-1" d="M26.67,58.33a4,4,0,0,0-3.75-.21,156.43,156.43,0,0,1-19.17,7.3A3.8,3.8,0,0,0,1,69.17v24a4,4,0,0,0,4,4H24.58a4,4,0,0,0,4-4V61.67A4.61,4.61,0,0,0,26.67,58.33Z" transform="translate(-1.04 -3.31)"/><path class="cls-1" d="M75,26.25,77.08,9.79a4,4,0,0,0-3.33-4.37L57.29,3.33a4,4,0,0,0-4.37,3.34A4,4,0,0,0,56.25,11l6.87.84c-9.58,8.95-30.83,26.87-58.95,36a4,4,0,0,0-2.5,5,4,4,0,0,0,3.75,2.7,2.76,2.76,0,0,0,1.25-.2C36,45.83,57.92,27.5,68.12,17.71l-1,7.29a4,4,0,0,0,3.34,4.37h.41A3.76,3.76,0,0,0,75,26.25Z" transform="translate(-1.04 -3.31)"/></svg>