<svg id="Layer_1" data-name="Layer 1" xmlns="http://www.w3.org/2000/svg" viewBox="0 0 91.67 97.92"><defs><style>.cls-1{fill:#8a6b52;}</style></defs><title>icon-megaphone</title><path class="cls-1" d="M59.37,42.08V40.83c0-9.79,1.05-23.54,5.21-33.75L7.08,24.79a4.26,4.26,0,0,0-2.91,4V54.37a4,4,0,0,0,2.91,4l57.5,18.34c-4.37-11-5.21-26.05-5.21-33.34A1.38,1.38,0,0,1,59.37,42.08Z" transform="translate(-4.17 -1.04)"/><path class="cls-1" d="M81.67,1C70.21,1,67.92,26.46,67.5,36.88h.62a17.72,17.72,0,0,1,3.55.2,3.19,3.19,0,0,1,1.46-.2A4.17,4.17,0,0,1,77.29,41v2.29a4.17,4.17,0,0,1-4.16,4.17,3.5,3.5,0,0,1-1.46-.21,18.94,18.94,0,0,1-3.55.21H67.5c.62,13.75,3.33,29.58,9.58,34.17a7.53,7.53,0,0,0,4.59,1.46c13.75,0,14.16-36.88,14.16-41S95.42,1,81.67,1Z" transform="translate(-4.17 -1.04)"/><path class="cls-1" d="M19.17,95.62A4.2,4.2,0,0,0,23.12,99H34.58a4.19,4.19,0,0,0,4.17-4.17V77.08L14.17,69.17Z" transform="translate(-4.17 -1.04)"/></svg>