<svg id="Layer_1" data-name="Layer 1" xmlns="http://www.w3.org/2000/svg" viewBox="0 0 480.59 342"><defs><style>.cls-1{fill:#8a6b52;fill-rule:evenodd;}</style></defs><title>quotation mark</title><path class="cls-1" d="M121.9,474c13.81-.69,61.24-2.79,72.83-6.31Q308.59,433.09,279,216.16A110.34,110.34,0,1,0,222.6,340.3a64.52,64.52,0,0,1-34.32,62.08c-9.65,5.06-55.26,7.66-66.38,7.38V474Z" transform="translate(-61.52 -132)"/><path class="cls-1" d="M378.87,474c13.82-.69,61.25-2.79,72.84-6.31q113.87-34.6,84.3-251.53A110.33,110.33,0,1,0,479.58,340.3a64.52,64.52,0,0,1-34.32,62.08c-9.65,5.06-55.26,7.66-66.39,7.38V474Z" transform="translate(-61.52 -132)"/></svg>